<svg width="109" height="25" viewBox="0 0 109 25" fill="none" xmlns="http://www.w3.org/2000/svg">
<path d="M41.2974 25C34.7348 25 30.5791 21.3743 30.5791 13.9666V0.174774H35.9564V14.1757C35.9564 18.0525 37.945 20.0327 41.2277 20.0327C44.5103 20.0327 46.4989 17.9744 46.4989 13.9945V2.88851C46.4989 2.53214 46.5691 2.17925 46.7055 1.85001C46.8419 1.52076 47.0418 1.2216 47.2938 0.969605C47.5458 0.717612 47.8449 0.517721 48.1742 0.381343C48.5034 0.244965 48.8563 0.174774 49.2127 0.174774H51.8762V14.1423C51.8762 21.3352 47.8628 25 41.2974 25Z" fill="url(#paint0_linear)"/>
<path d="M57.3569 0.17339H59.8503C60.6157 0.172489 61.3709 0.348179 62.0574 0.686793C62.7438 1.02541 63.3428 1.51782 63.8079 2.12572L73.7536 15.223V0.162231H79.0528V24.6026C77.6323 24.6042 76.2305 24.2778 74.9568 23.6489C73.6831 23.02 72.5717 22.1056 71.7092 20.9768L62.6449 9.076V24.6137H57.3457L57.3569 0.17339Z" fill="url(#paint1_linear)"/>
<path d="M0.661133 11.4218V21.9699C0.661133 22.6689 0.938819 23.3393 1.4331 23.8336C1.92738 24.3279 2.59776 24.6055 3.29678 24.6055C3.99579 24.6055 4.66618 24.3279 5.16046 23.8336C5.65474 23.3393 5.93242 22.6689 5.93242 21.9699V20.9742C5.93223 20.0184 5.65413 19.0833 5.13197 18.2828L0.661133 11.4218Z" fill="#CB1A20"/>
<path d="M17.8443 2.52318L12.8798 10.511L7.9125 2.52038C7.46727 1.80288 6.84629 1.21087 6.10834 0.800415C5.37039 0.389955 4.5399 0.174625 3.69548 0.174805H0H0.0167336C0.440569 0.459613 0.802876 0.826658 1.08215 1.25416L8.96676 13.3614L12.7403 19.0873H12.8798L19.7576 8.64791V24.604H25.0986V0.174805H22.0669C21.2216 0.175552 20.3903 0.39153 19.6516 0.802385C18.9128 1.21324 18.2908 1.80544 17.8443 2.52318Z" fill="url(#paint2_linear)"/>
<path d="M93.3156 0H98.2745L108.747 24.6133H103.127L100.896 19.1328H90.5768L88.9536 23.1128C88.7728 23.5563 88.4641 23.9359 88.0667 24.2032C87.6693 24.4704 87.2012 24.6132 86.7223 24.6133H82.8428L93.3156 0ZM98.9718 14.3831L95.7253 6.45942L92.4789 14.3831H98.9718Z" fill="url(#paint3_linear)"/>
<defs>
<linearGradient id="paint0_linear" x1="51.2431" y1="-4.51708" x2="36.0087" y2="26.1413" gradientUnits="userSpaceOnUse">
<stop stop-color="#3064FF"/>
<stop offset="1" stop-color="#1346E0"/>
</linearGradient>
<linearGradient id="paint1_linear" x1="78.4075" y1="-4.45899" x2="63.7149" y2="26.1388" gradientUnits="userSpaceOnUse">
<stop stop-color="#3064FF"/>
<stop offset="1" stop-color="#1346E0"/>
</linearGradient>
<linearGradient id="paint2_linear" x1="24.3525" y1="-4.4422" x2="11.0363" y2="27.6512" gradientUnits="userSpaceOnUse">
<stop stop-color="#3064FF"/>
<stop offset="1" stop-color="#1346E0"/>
</linearGradient>
<linearGradient id="paint3_linear" x1="107.977" y1="-4.65179" x2="94.7891" y2="27.9085" gradientUnits="userSpaceOnUse">
<stop stop-color="#3064FF"/>
<stop offset="1" stop-color="#1346E0"/>
</linearGradient>
</defs>
</svg>
